<mxfile host="app.diagrams.net" modified="2023-06-08T09:26:41.686Z" agent="Mozilla/5.0 (Windows NT 10.0; Win64; x64) AppleWebKit/537.36 (KHTML, like Gecko) Chrome/114.0.0.0 Safari/537.36" version="21.3.7" etag="J-PhhzTg6azdPHen2X2Z" type="github">
  <diagram name="第 1 页" id="NS-F2zEvttwvpOeABiUR">
    <mxGraphModel>
      <root>
        <mxCell id="0" />
        <mxCell id="1" parent="0" />
      </root>
    </mxGraphModel>
  </diagram>
</mxfile>
